<?xml version="1.0" standalone="no"?>
<!DOCTYPE svg PUBLIC "-//W3C//DTD SVG 20010904//EN"
"http://www.w3.org/TR/2001/REC-SVG-20010904/DTD/svg10.dtd">
<svg version="1.0" xmlns="http://www.w3.org/2000/svg"
width="189.000000pt" height="190.000000pt" viewBox="0 0 189.000000 190.000000"
preserveAspectRatio="xMidYMid meet">

<g transform="translate(0.000000,190.000000) scale(0.100000,-0.100000)"
fill="#000000" stroke="none">
<path d="M418 1853 c7 -3 16 -2 19 1 4 3 -2 6 -13 5 -11 0 -14 -3 -6 -6z"/>
<path d="M1468 1853 c7 -3 16 -2 19 1 4 3 -2 6 -13 5 -11 0 -14 -3 -6 -6z"/>
<path d="M199 1763 c-13 -16 -12 -17 4 -4 9 7 17 15 17 17 0 8 -8 3 -21 -13z"/>
<path d="M1690 1767 c0 -2 15 -16 33 -33 l32 -29 -29 33 c-28 30 -36 37 -36
29z"/>
<path d="M41 1474 c0 -11 3 -14 6 -6 3 7 2 16 -1 19 -3 4 -6 -2 -5 -13z"/>
<path d="M1851 1454 c0 -11 3 -14 6 -6 3 7 2 16 -1 19 -3 4 -6 -2 -5 -13z"/>
<path d="M497 1369 c-119 -28 -240 -125 -292 -234 -24 -51 -30 -75 -33 -160
-3 -83 0 -111 18 -164 58 -173 199 -279 385 -289 152 -8 253 25 341 113 70 70
94 135 94 260 l0 95 -220 0 -220 0 0 -60 0 -60 146 0 147 0 -6 -42 c-8 -58
-52 -117 -112 -147 -41 -22 -63 -26 -130 -26 -128 1 -212 52 -266 161 -20 40
-24 65 -24 134 0 73 4 93 28 142 49 100 135 150 257 151 83 0 154 -24 202 -70
l27 -25 28 20 c15 11 39 32 53 47 l25 27 -40 35 c-51 44 -99 69 -172 88 -62
16 -176 18 -236 4z"/>
<path d="M1304 1166 c-90 -30 -168 -98 -206 -181 -33 -71 -32 -198 1 -272 50
-112 177 -193 301 -193 124 0 251 81 301 193 33 74 34 201 1 272 -65 143 -253
228 -398 181z m186 -141 l80 -70 0 -57 c0 -31 -4 -59 -8 -62 -5 -3 -43 26 -86
65 l-77 69 -77 -69 c-42 -38 -80 -68 -84 -65 -4 3 -8 31 -8 62 l0 57 82 73
c45 40 85 71 90 70 5 -2 45 -35 88 -73z m-4 -201 l84 -76 0 -59 c0 -35 -4 -59
-11 -59 -6 0 -42 28 -80 63 -38 34 -73 63 -77 65 -4 1 -40 -27 -79 -63 -39
-36 -76 -65 -82 -65 -7 0 -11 23 -11 58 l-1 57 83 77 c46 43 85 78 87 78 1 0
41 -34 87 -76z"/>
<path d="M1851 444 c0 -11 3 -14 6 -6 3 7 2 16 -1 19 -3 4 -6 -2 -5 -13z"/>
<path d="M41 424 c0 -11 3 -14 6 -6 3 7 2 16 -1 19 -3 4 -6 -2 -5 -13z"/>
<path d="M120 216 c0 -2 8 -10 18 -17 15 -13 16 -12 3 4 -13 16 -21 21 -21 13z"/>
<path d="M1729 173 l-24 -28 28 24 c15 14 27 26 27 28 0 8 -8 1 -31 -24z"/>
<path d="M418 43 c7 -3 16 -2 19 1 4 3 -2 6 -13 5 -11 0 -14 -3 -6 -6z"/>
<path d="M1468 43 c7 -3 16 -2 19 1 4 3 -2 6 -13 5 -11 0 -14 -3 -6 -6z"/>
</g>
</svg>
